<svg width="443" height="171" viewBox="0 0 443 171" fill="none" xmlns="http://www.w3.org/2000/svg">
<path d="M75.849 19.4523C81.9294 19.1961 87.9194 19.8 93.8189 21.2643C99.7936 22.5622 105.272 24.7375 110.255 27.7901C115.479 30.751 120.041 34.5146 123.942 39.081C127.919 43.481 131.114 48.7297 133.528 54.8269C135.868 61.0904 137.028 67.3219 137.01 73.5216C136.992 79.7213 136.051 86.2046 134.186 92.9715C132.893 97.5937 132.163 102.07 131.996 106.4C131.829 110.73 131.744 115.097 131.742 119.502C131.905 123.981 131.903 128.385 131.736 132.715C131.734 137.12 131.327 141.542 130.514 145.98C129.611 150.178 127.59 153.771 124.451 156.758C121.552 159.653 117.768 160.547 113.1 159.438C110.398 158.818 108.079 157.57 106.143 155.694C104.447 153.726 103.067 151.501 102.002 149.017C101.013 146.367 100.226 143.709 99.6414 141.042C99.2974 138.283 98.9608 135.728 98.6316 133.376C92.5797 136.649 86.6861 138.692 80.9507 139.505C75.2904 140.151 69.1353 139.473 62.4854 137.469C56.9013 135.747 51.7903 133.638 47.1524 131.141C42.5144 128.645 37.8093 125.418 33.0369 121.459C26.7637 116.422 22.33 110.614 19.7357 104.035C17.3817 97.3639 16.319 90.4757 16.5474 83.3699C17.0162 76.1724 18.746 69.0442 21.7368 61.9851C24.7277 54.926 28.6717 48.3977 33.5687 42.4002C39.938 34.4647 46.7116 28.7144 53.8895 25.1493C61.0675 21.5842 68.3873 19.6852 75.849 19.4523ZM68.8531 51.4351C65.4896 52.7188 62.4335 54.642 59.6849 57.2048C56.9363 59.7676 54.6079 62.7205 52.6997 66.0635C50.9566 69.4811 49.7088 73.1226 48.9564 76.9878C48.2039 80.8531 48.1347 84.5264 48.7486 88.0079C49.3477 91.0821 51.2529 94.3459 54.4641 97.7995C57.7505 101.087 61.465 103.867 65.6076 106.139C70.4106 108.71 75.3046 109.319 80.2896 107.967C85.4398 106.69 89.9373 104.216 93.7824 100.547C97.8677 96.786 100.993 92.2905 103.157 87.0607C105.396 81.6646 106.172 76.2079 105.484 70.6904C104.93 66.6355 103.341 63.1137 100.715 60.1249C98.2538 57.2107 95.2071 54.9329 91.5747 53.2915C88.0174 51.4839 84.122 50.4246 79.8884 50.1136C75.8951 49.711 72.2166 50.1515 68.8531 51.4351Z" fill="#abe9b3"/>
<path d="M159.216 55.768C159.387 55.9387 159.515 56.0667 159.6 56.152C159.771 56.2373 159.856 56.408 159.856 56.664C159.856 59.3093 159.984 62.0827 160.24 64.984C160.496 67.8853 160.752 70.8293 161.008 73.816C161.264 76.7173 161.477 79.6187 161.648 82.52C161.904 85.4213 162.032 88.152 162.032 90.712C162.629 89.8587 163.312 88.8773 164.08 87.768C164.933 86.6587 165.915 85.6347 167.024 84.696C168.133 83.7573 169.328 82.9893 170.608 82.392C171.973 81.7093 173.467 81.3253 175.088 81.24C175.685 80.6427 176.24 80.344 176.752 80.344C177.605 80.2587 178.416 80.5573 179.184 81.24C179.952 81.8373 180.763 82.5627 181.616 83.416C182.725 84.5253 183.664 85.848 184.432 87.384C185.2 88.92 185.712 90.4987 185.968 92.12C186.224 93.7413 186.181 95.32 185.84 96.856C185.584 98.392 184.901 99.7147 183.792 100.824C182.683 104.067 181.147 106.797 179.184 109.016C177.221 111.149 175.131 112.771 172.912 113.88L165.232 117.72C164.72 117.976 164.208 118.317 163.696 118.744C163.269 119.085 162.8 119.384 162.288 119.64C161.861 119.811 161.52 119.725 161.264 119.384C161.093 119.128 160.795 118.915 160.368 118.744C159.344 118.317 158.704 117.677 158.448 116.824C158.192 116.056 158.021 115.416 157.936 114.904C157.851 114.392 157.723 113.667 157.552 112.728C156.613 108.547 155.931 103.939 155.504 98.904C155.163 93.8693 154.949 88.8773 154.864 83.928C154.864 78.8933 154.907 74.072 154.992 69.464C155.163 64.7707 155.333 60.7173 155.504 57.304C155.504 56.1947 155.547 55.4693 155.632 55.128C155.803 54.7867 156.101 54.5307 156.528 54.36C156.699 54.2747 156.912 54.1893 157.168 54.104C157.424 54.0187 157.765 54.0613 158.192 54.232C158.448 54.3173 158.619 54.5307 158.704 54.872C158.875 55.128 159.045 55.4267 159.216 55.768ZM181.616 93.144C181.616 92.632 181.36 91.992 180.848 91.224C180.421 90.3707 179.867 89.56 179.184 88.792C178.587 88.024 177.904 87.3413 177.136 86.744C176.368 86.1467 175.685 85.7627 175.088 85.592C174.149 85.848 172.955 86.488 171.504 87.512C170.053 88.4507 168.859 89.5173 167.92 90.712C165.445 93.6987 164.123 96.856 163.952 100.184C163.781 103.512 164.251 106.797 165.36 110.04C166.128 109.784 167.109 109.357 168.304 108.76C169.584 108.163 170.907 107.48 172.272 106.712C173.637 105.944 174.96 105.176 176.24 104.408C177.52 103.555 178.587 102.787 179.44 102.104C180.379 100.995 180.976 99.8 181.232 98.52C181.488 97.1547 181.616 95.3627 181.616 93.144ZM222.905 79.576C223.502 80.1733 224.057 80.856 224.569 81.624C225.081 82.3067 225.508 83.032 225.849 83.8C226.532 85.4213 226.873 87.0427 226.873 88.664C226.958 90.2 226.361 92.0773 225.081 94.296C223.63 96.6853 221.753 98.6907 219.449 100.312C217.23 101.933 214.798 102.957 212.153 103.384C210.276 103.725 208.398 103.725 206.521 103.384C204.644 102.957 202.852 102.104 201.145 100.824C200.633 101.251 200.206 101.891 199.865 102.744C199.609 103.512 199.524 104.237 199.609 104.92C199.78 106.115 200.206 107.437 200.889 108.888C201.657 110.253 202.468 111.192 203.321 111.704C204.772 112.301 206.777 112.344 209.337 111.832C211.982 111.32 214.756 110.552 217.657 109.528C220.644 108.419 223.545 107.224 226.361 105.944C229.262 104.579 231.737 103.427 233.785 102.488C233.785 103 233.657 103.341 233.401 103.512C233.23 103.683 232.974 103.981 232.633 104.408C232.206 104.835 231.737 105.347 231.225 105.944C230.713 106.541 230.116 107.053 229.433 107.48C228.58 107.992 227.94 108.675 227.513 109.528C227.086 110.296 226.276 111.021 225.081 111.704C223.46 112.557 221.796 113.453 220.089 114.392C218.468 115.245 216.846 116.056 215.225 116.824C213.604 117.507 211.94 118.061 210.233 118.488C208.612 118.829 206.99 118.915 205.369 118.744C204.26 118.573 203.321 118.275 202.553 117.848C201.87 117.421 201.017 116.781 199.993 115.928C199.481 115.501 198.884 115.075 198.201 114.648C197.518 114.221 197.006 113.795 196.665 113.368C195.214 111.235 194.233 108.973 193.721 106.584C193.209 104.109 193.081 101.677 193.337 99.288C193.678 96.8133 194.318 94.424 195.257 92.12C196.196 89.7307 197.433 87.5547 198.969 85.592C199.822 84.4827 200.846 83.3733 202.041 82.264C203.321 81.0693 204.686 80.0453 206.137 79.192C207.673 78.2533 209.252 77.528 210.873 77.016C212.58 76.504 214.286 76.2907 215.993 76.376C216.676 76.4613 217.273 76.6747 217.785 77.016C218.382 77.272 219.022 77.5707 219.705 77.912C220.132 78.0827 220.644 78.3387 221.241 78.68C221.924 78.936 222.478 79.2347 222.905 79.576ZM219.193 87.128C219.022 86.36 218.553 85.6773 217.785 85.08C217.017 84.4827 216.164 84.0133 215.225 83.672C214.286 83.2453 213.348 82.9893 212.409 82.904C211.47 82.8187 210.788 82.8613 210.361 83.032C209.678 83.288 208.868 83.7573 207.929 84.44C207.076 85.0373 206.222 85.7627 205.369 86.616C204.601 87.4693 203.833 88.408 203.065 89.432C202.382 90.3707 201.87 91.2667 201.529 92.12C201.358 92.376 201.188 92.8027 201.017 93.4C200.932 93.912 200.974 94.296 201.145 94.552C202.169 95.832 203.705 96.472 205.753 96.472C207.716 96.472 209.806 96.0027 212.025 95.064C214.329 94.1253 215.95 93.144 216.889 92.12C216.974 91.9493 217.145 91.6507 217.401 91.224C217.742 90.7973 218.041 90.328 218.297 89.816C218.553 89.304 218.766 88.792 218.937 88.28C219.193 87.768 219.278 87.384 219.193 87.128ZM246.083 58.072C247.107 62.68 247.918 67.288 248.515 71.896C249.112 76.504 249.667 81.112 250.179 85.72C250.691 90.328 251.203 94.936 251.715 99.544C252.312 104.152 253.08 108.76 254.019 113.368C253.848 114.477 253.72 115.373 253.635 116.056C253.55 116.739 253.336 117.165 252.995 117.336C252.568 117.592 252.142 117.891 251.715 118.232C251.374 118.488 250.99 118.701 250.563 118.872C250.392 118.957 250.222 119.085 250.051 119.256C249.88 119.512 249.667 119.683 249.411 119.768C249.24 119.853 249.07 119.853 248.899 119.768C248.728 119.683 248.515 119.427 248.259 119C246.638 114.136 245.144 109.229 243.779 104.28C242.499 99.3307 241.432 94.3387 240.579 89.304C239.811 84.2693 239.299 79.192 239.043 74.072C238.872 68.8667 239.043 63.5333 239.555 58.072C239.555 56.792 239.939 55.9813 240.707 55.64C241.048 55.4693 241.475 55.5973 241.987 56.024C242.584 56.4507 243.096 56.7493 243.523 56.92C244.12 57.176 244.59 57.3467 244.931 57.432C245.272 57.432 245.656 57.6453 246.083 58.072ZM289.565 94.936C288.626 94.936 287.73 94.9787 286.877 95.064C286.024 95.064 285.128 95.1067 284.189 95.192C284.445 97.3253 284.616 99.5867 284.701 101.976C284.872 104.365 284.872 106.797 284.701 109.272C284.53 111.661 284.189 114.051 283.677 116.44C283.25 118.744 282.61 120.877 281.757 122.84C281.586 123.181 281.544 123.437 281.629 123.608C281.8 123.864 281.8 124.163 281.629 124.504C281.373 124.675 281.16 124.803 280.989 124.888C280.904 124.973 280.776 125.101 280.605 125.272C279.496 125.955 278.6 126.296 277.917 126.296C277.746 126.296 277.618 126.125 277.533 125.784C277.533 125.443 277.618 125.101 277.789 124.76C278.728 121.091 278.941 116.867 278.429 112.088C278.002 107.224 276.978 101.592 275.357 95.192C272.456 95.192 269.512 94.8933 266.525 94.296C266.44 94.296 266.184 94.296 265.757 94.296C265.416 94.296 265.032 94.296 264.605 94.296C264.178 94.2107 263.794 94.1253 263.453 94.04C263.112 93.8693 262.941 93.656 262.941 93.4C263.026 92.888 262.898 92.5467 262.557 92.376C262.301 92.12 262.173 91.9067 262.173 91.736C262.088 91.1387 262.13 90.7973 262.301 90.712C262.557 90.5413 262.898 90.4133 263.325 90.328C264.776 89.9867 266.354 89.688 268.061 89.432C269.853 89.176 271.73 88.9627 273.693 88.792C273.522 88.28 273.437 87.9387 273.437 87.768C272.413 84.7813 271.645 81.5387 271.133 78.04C270.621 74.5413 270.408 71.0427 270.493 67.544C270.664 64.0453 271.133 60.7173 271.901 57.56C272.754 54.3173 273.992 51.5013 275.613 49.112C276.21 48.2587 276.978 47.6613 277.917 47.32C278.344 47.1493 278.77 46.9787 279.197 46.808C279.709 46.6373 280.178 46.5947 280.605 46.68C282.312 47.0213 283.848 47.6187 285.213 48.472C286.578 49.24 287.816 50.2213 288.925 51.416C290.12 52.5253 291.229 53.8053 292.253 55.256C293.277 56.6213 294.258 58.0293 295.197 59.48C295.965 60.4187 295.965 61.144 295.197 61.656C294.429 62.168 293.746 62.6373 293.149 63.064C292.466 63.576 291.698 63.832 290.845 63.832C290.248 63.6613 289.65 63.2773 289.053 62.68C288.456 62.0827 287.73 61.5707 286.877 61.144C286.45 60.7173 285.896 60.2053 285.213 59.608C284.53 58.9253 283.805 58.328 283.037 57.816C282.269 57.304 281.544 56.8773 280.861 56.536C280.178 56.1947 279.624 56.1093 279.197 56.28C278.941 56.4507 278.557 56.9627 278.045 57.816C277.618 58.6693 277.277 59.4373 277.021 60.12C276.424 61.9973 276.338 63.7467 276.765 65.368C277.789 69.464 278.813 73.4747 279.837 77.4C280.861 81.24 281.885 84.696 282.909 87.768C282.909 88.024 282.952 88.2373 283.037 88.408C286.365 88.408 289.608 88.664 292.765 89.176C296.008 89.6027 298.952 90.328 301.597 91.352C302.024 91.5227 301.64 91.992 300.445 92.76C299.762 93.1867 299.122 93.4 298.525 93.4C298.013 93.3147 297.416 93.4 296.733 93.656C295.538 94.0827 294.344 94.3813 293.149 94.552C291.954 94.7227 290.76 94.8507 289.565 94.936ZM341.129 84.568C341.129 90.5413 341.172 96.088 341.257 101.208C341.428 106.328 341.94 111.363 342.793 116.312C342.878 116.824 342.75 117.379 342.409 117.976C342.068 118.573 341.726 119.085 341.385 119.512C340.873 120.109 340.404 120.664 339.977 121.176C339.55 121.773 339.124 122.157 338.697 122.328C337.844 122.755 337.332 122.84 337.161 122.584C336.99 122.328 336.862 121.987 336.777 121.56C336.436 119.939 335.966 117.763 335.369 115.032C334.857 112.216 334.516 109.4 334.345 106.584C333.321 108.291 332.169 110.04 330.889 111.832C329.694 113.539 328.372 115.117 326.921 116.568C325.556 118.019 324.148 119.299 322.697 120.408C321.246 121.603 319.838 122.456 318.473 122.968C317.876 123.224 317.449 123.267 317.193 123.096C317.022 122.925 316.681 122.755 316.169 122.584C315.401 122.243 314.633 121.901 313.865 121.56C313.182 121.304 312.628 120.877 312.201 120.28C311.262 118.659 310.494 117.08 309.897 115.544C308.958 113.069 308.361 110.467 308.105 107.736C307.934 105.005 307.934 102.275 308.105 99.544C308.276 96.8133 308.574 94.168 309.001 91.608C309.428 89.048 309.854 86.7013 310.281 84.568C310.366 84.1413 310.58 83.8853 310.921 83.8C311.262 83.6293 311.476 83.3307 311.561 82.904C311.732 82.2213 312.03 81.752 312.457 81.496C312.969 81.24 313.481 81.0267 313.993 80.856C314.676 80.6853 315.188 80.5573 315.529 80.472C315.956 80.3013 316.51 80.216 317.193 80.216C316.425 82.6907 315.828 85.5067 315.401 88.664C314.974 91.8213 314.761 95.064 314.761 98.392C314.846 101.635 315.145 104.792 315.657 107.864C316.254 110.936 317.108 113.624 318.217 115.928C319.838 114.819 321.417 113.453 322.953 111.832C324.574 110.211 326.068 108.547 327.433 106.84C328.798 105.048 329.993 103.341 331.017 101.72C332.126 100.099 332.937 98.7333 333.449 97.624C333.961 95.9173 334.26 93.9973 334.345 91.864C334.516 89.6453 334.601 87.6827 334.601 85.976C334.516 85.208 334.558 84.6107 334.729 84.184C334.985 83.7573 335.241 83.288 335.497 82.776C335.668 82.52 335.753 82.264 335.753 82.008C335.838 81.752 336.009 81.5387 336.265 81.368C336.436 81.1973 336.606 80.984 336.777 80.728C337.033 80.3867 337.289 80.216 337.545 80.216C338.057 80.216 338.398 80.472 338.569 80.984C338.74 81.496 338.996 81.88 339.337 82.136C339.764 82.5627 340.148 82.904 340.489 83.16C340.916 83.3307 341.129 83.8 341.129 84.568ZM356.341 55.768C356.512 55.9387 356.64 56.0667 356.725 56.152C356.896 56.2373 356.981 56.408 356.981 56.664C356.981 59.3093 357.109 62.0827 357.365 64.984C357.621 67.8853 357.877 70.8293 358.133 73.816C358.389 76.7173 358.602 79.6187 358.773 82.52C359.029 85.4213 359.157 88.152 359.157 90.712C359.754 89.8587 360.437 88.8773 361.205 87.768C362.058 86.6587 363.04 85.6347 364.149 84.696C365.258 83.7573 366.453 82.9893 367.733 82.392C369.098 81.7093 370.592 81.3253 372.213 81.24C372.81 80.6427 373.365 80.344 373.877 80.344C374.73 80.2587 375.541 80.5573 376.309 81.24C377.077 81.8373 377.888 82.5627 378.741 83.416C379.85 84.5253 380.789 85.848 381.557 87.384C382.325 88.92 382.837 90.4987 383.093 92.12C383.349 93.7413 383.306 95.32 382.965 96.856C382.709 98.392 382.026 99.7147 380.917 100.824C379.808 104.067 378.272 106.797 376.309 109.016C374.346 111.149 372.256 112.771 370.037 113.88L362.357 117.72C361.845 117.976 361.333 118.317 360.821 118.744C360.394 119.085 359.925 119.384 359.413 119.64C358.986 119.811 358.645 119.725 358.389 119.384C358.218 119.128 357.92 118.915 357.493 118.744C356.469 118.317 355.829 117.677 355.573 116.824C355.317 116.056 355.146 115.416 355.061 114.904C354.976 114.392 354.848 113.667 354.677 112.728C353.738 108.547 353.056 103.939 352.629 98.904C352.288 93.8693 352.074 88.8773 351.989 83.928C351.989 78.8933 352.032 74.072 352.117 69.464C352.288 64.7707 352.458 60.7173 352.629 57.304C352.629 56.1947 352.672 55.4693 352.757 55.128C352.928 54.7867 353.226 54.5307 353.653 54.36C353.824 54.2747 354.037 54.1893 354.293 54.104C354.549 54.0187 354.89 54.0613 355.317 54.232C355.573 54.3173 355.744 54.5307 355.829 54.872C356 55.128 356.17 55.4267 356.341 55.768ZM378.741 93.144C378.741 92.632 378.485 91.992 377.973 91.224C377.546 90.3707 376.992 89.56 376.309 88.792C375.712 88.024 375.029 87.3413 374.261 86.744C373.493 86.1467 372.81 85.7627 372.213 85.592C371.274 85.848 370.08 86.488 368.629 87.512C367.178 88.4507 365.984 89.5173 365.045 90.712C362.57 93.6987 361.248 96.856 361.077 100.184C360.906 103.512 361.376 106.797 362.485 110.04C363.253 109.784 364.234 109.357 365.429 108.76C366.709 108.163 368.032 107.48 369.397 106.712C370.762 105.944 372.085 105.176 373.365 104.408C374.645 103.555 375.712 102.787 376.565 102.104C377.504 100.995 378.101 99.8 378.357 98.52C378.613 97.1547 378.741 95.3627 378.741 93.144ZM424.254 84.568C424.254 90.5413 424.297 96.088 424.382 101.208C424.553 106.328 425.065 111.363 425.918 116.312C426.003 116.824 425.875 117.379 425.534 117.976C425.193 118.573 424.851 119.085 424.51 119.512C423.998 120.109 423.529 120.664 423.102 121.176C422.675 121.773 422.249 122.157 421.822 122.328C420.969 122.755 420.457 122.84 420.286 122.584C420.115 122.328 419.987 121.987 419.902 121.56C419.561 119.939 419.091 117.763 418.494 115.032C417.982 112.216 417.641 109.4 417.47 106.584C416.446 108.291 415.294 110.04 414.014 111.832C412.819 113.539 411.497 115.117 410.046 116.568C408.681 118.019 407.273 119.299 405.822 120.408C404.371 121.603 402.963 122.456 401.598 122.968C401.001 123.224 400.574 123.267 400.318 123.096C400.147 122.925 399.806 122.755 399.294 122.584C398.526 122.243 397.758 121.901 396.99 121.56C396.307 121.304 395.753 120.877 395.326 120.28C394.387 118.659 393.619 117.08 393.022 115.544C392.083 113.069 391.486 110.467 391.23 107.736C391.059 105.005 391.059 102.275 391.23 99.544C391.401 96.8133 391.699 94.168 392.126 91.608C392.553 89.048 392.979 86.7013 393.406 84.568C393.491 84.1413 393.705 83.8853 394.046 83.8C394.387 83.6293 394.601 83.3307 394.686 82.904C394.857 82.2213 395.155 81.752 395.582 81.496C396.094 81.24 396.606 81.0267 397.118 80.856C397.801 80.6853 398.313 80.5573 398.654 80.472C399.081 80.3013 399.635 80.216 400.318 80.216C399.55 82.6907 398.953 85.5067 398.526 88.664C398.099 91.8213 397.886 95.064 397.886 98.392C397.971 101.635 398.27 104.792 398.782 107.864C399.379 110.936 400.233 113.624 401.342 115.928C402.963 114.819 404.542 113.453 406.078 111.832C407.699 110.211 409.193 108.547 410.558 106.84C411.923 105.048 413.118 103.341 414.142 101.72C415.251 100.099 416.062 98.7333 416.574 97.624C417.086 95.9173 417.385 93.9973 417.47 91.864C417.641 89.6453 417.726 87.6827 417.726 85.976C417.641 85.208 417.683 84.6107 417.854 84.184C418.11 83.7573 418.366 83.288 418.622 82.776C418.793 82.52 418.878 82.264 418.878 82.008C418.963 81.752 419.134 81.5387 419.39 81.368C419.561 81.1973 419.731 80.984 419.902 80.728C420.158 80.3867 420.414 80.216 420.67 80.216C421.182 80.216 421.523 80.472 421.694 80.984C421.865 81.496 422.121 81.88 422.462 82.136C422.889 82.5627 423.273 82.904 423.614 83.16C424.041 83.3307 424.254 83.8 424.254 84.568Z" fill="white"/>
</svg>
