<svg width="122" height="141" viewBox="0 0 122 141" fill="none" xmlns="http://www.w3.org/2000/svg">
    <path
        d="M59.849 0.452308C65.9294 0.196058 71.9194 0.800046 77.8189 2.26428C83.7936 3.56223 89.2724 5.7375 94.2554 8.7901C99.4786 11.751 104.041 15.5146 107.942 20.081C111.919 24.481 115.114 29.7297 117.528 35.8269C119.868 42.0904 121.028 48.3219 121.01 54.5216C120.992 60.7213 120.051 67.2046 118.186 73.9715C116.893 78.5937 116.163 83.0697 115.996 87.3997C115.829 91.7297 115.744 96.097 115.742 100.502C115.905 104.981 115.903 109.385 115.736 113.715C115.734 118.12 115.327 122.542 114.514 126.98C113.611 131.178 111.59 134.771 108.451 137.758C105.552 140.653 101.768 141.547 97.0998 140.438C94.3977 139.818 92.0787 138.57 90.1429 136.694C88.4473 134.726 87.0671 132.501 86.0023 130.017C85.0127 127.367 84.2257 124.709 83.6414 122.042C83.2974 119.283 82.9608 116.728 82.6316 114.376C76.5797 117.649 70.6861 119.692 64.9507 120.505C59.2904 121.151 53.1353 120.473 46.4854 118.469C40.9013 116.747 35.7903 114.638 31.1524 112.141C26.5144 109.645 21.8093 106.418 17.0369 102.459C10.7637 97.4218 6.32999 91.6136 3.73574 85.0346C1.38174 78.3639 0.318974 71.4757 0.547444 64.3699C1.01617 57.1724 2.74597 50.0442 5.73684 42.9851C8.72772 35.926 12.6717 29.3977 17.5687 23.4002C23.938 15.4647 30.7116 9.7144 37.8895 6.1493C45.0675 2.5842 52.3873 0.685203 59.849 0.452308ZM52.8531 32.4351C49.4896 33.7188 46.4335 35.642 43.6849 38.2048C40.9363 40.7676 38.6079 43.7205 36.6997 47.0635C34.9566 50.4811 33.7088 54.1226 32.9564 57.9878C32.2039 61.8531 32.1347 65.5264 32.7486 69.0079C33.3477 72.0821 35.2529 75.3459 38.4641 78.7995C41.7505 82.0867 45.465 84.8665 49.6076 87.1389C54.4106 89.7097 59.3046 90.3191 64.2896 88.9671C69.4398 87.6897 73.9373 85.2163 77.7824 81.547C81.8677 77.786 84.9925 73.2905 87.1568 68.0607C89.3963 62.6646 90.172 57.2079 89.4839 51.6904C88.9303 47.6355 87.3405 44.1137 84.7146 41.1249C82.2538 38.2107 79.2071 35.9329 75.5747 34.2915C72.0174 32.4839 68.122 31.4246 63.8884 31.1136C59.8951 30.711 56.2166 31.1515 52.8531 32.4351Z"
        fill="#abe9b3" />
    <style>
        path { fill: #000; }

        @media (prefers-color-scheme: dark) {
        path { fill: #abe9b3; }
        }
    </style>
</svg>